<svg width="159" height="159" viewBox="0 0 159 159" fill="none" xmlns="http://www.w3.org/2000/svg">
<path d="M92.3314 113.947C91.4569 111.618 87.1083 113.152 83.2605 109.972C81.6705 108.644 80.0805 103.373 80.0805 103.373C80.0805 103.373 84.0555 106.204 86.353 104.121C88.6506 102.038 87.6091 96.0037 83.173 97.5619C78.4666 99.2314 77.2423 97.4427 71.8681 95.6062C66.4939 93.7698 63.2901 97.1406 63.2901 97.1406C55.03 96.1627 49.9738 97.8481 46.1022 99.9867C42.6837 96.0117 36.3237 98.8578 33.1596 101.839C29.4946 105.289 30.2022 108.104 30.6235 108.994C25.9887 112.587 25.8535 116.236 26.1795 118.947C26.4482 121.798 27.5941 124.496 29.4592 126.668C31.3242 128.84 33.8169 130.382 36.594 131.079C36.594 131.079 36.4668 137.042 38.1204 137.582C39.774 138.123 40.4179 136.064 43.6854 134.402C47.2152 133.48 50.9596 129.823 48.988 127.247C53.3844 129.974 60.0147 128.313 60.5632 121.237C62.7256 125.435 72.6552 124.926 78.0532 122.596C78.7051 127.597 77.1151 132.327 74.9527 134.355C71.7727 137.312 69.1572 137.073 67.5274 138.473C65.8977 139.872 69.7693 144.157 78.6574 138.64C86.5359 133.742 87.1083 125.339 81.6307 118.542C87.0685 120.045 93.2377 116.356 92.3314 113.947ZM46.8177 114.829C46.762 114.957 45.7365 109.042 50.9914 106.299C54.6087 104.407 58.7904 105.695 59.2594 108.581C59.8716 112.365 49.4889 107.849 46.8177 114.829Z" fill="#7AAC5C"/>
<path d="M34.3837 90.8127C31.8874 89.1114 36.077 75.2625 40.6721 75.4851C46.0781 75.7474 54.3143 87.6327 51.4285 91.9257C49.8464 94.2789 38.5574 93.6508 34.3837 90.8127Z" fill="#7AAC5C"/>
<path d="M20.2092 81.0899C19.1041 80.2949 20.9565 73.9349 22.9837 74.0065C25.3687 74.1257 29.0098 79.6192 27.7537 81.6067C27.0303 82.6799 22.0536 82.4176 20.2092 81.0899Z" fill="#7AAC5C"/>
<path d="M55.8491 77.3689C54.9348 76.7329 56.4613 71.5972 58.1308 71.6767C60.0944 71.78 63.0836 76.1843 62.0342 77.7823C61.4618 78.6568 57.3596 78.4183 55.8491 77.3689Z" fill="#7AAC5C"/>
<path d="M109.328 24.2708C109.328 24.2708 116.937 19.1351 119.218 20.3912C121.897 21.8699 120.435 22.8557 121.897 24.1754C123.813 25.9085 131.787 23.1976 133.329 24.9704C135.381 27.3554 131.739 29.812 132.813 32.1811C133.886 34.5502 139.403 34.9397 139.403 36.2594C139.403 38.0164 137.018 37.7779 136.835 39.4394C136.74 40.1629 138.131 43.3667 137.05 43.9153C135.969 44.4638 131.835 39.4156 128.981 39.8926C126.89 40.2424 125.308 42.8659 123.281 42.8102C120.156 42.7228 114.377 36.9988 112.453 38.231C110.529 39.4633 109.917 42.8023 107.905 42.7228C105.894 42.6433 103.517 37.3009 102.014 37.6745C100.512 38.0482 97.785 42.8818 96.195 42.5479C94.4841 42.0599 92.7113 41.8242 90.9321 41.8483C88.9923 41.9198 84.3574 44.6308 81.3126 44.0186C79.7226 43.7006 78.4824 41.9198 77.1229 42.2776C74.881 42.8579 72.9651 46.3718 72.0429 45.7199C71.2876 45.1873 72.6471 42.8897 72.0429 41.6972C71.6931 41.0374 69.6579 40.6637 69.4273 39.4871C69.1173 38.1595 75.0241 36.2038 75.1513 34.1845C75.2785 32.1652 74.0383 32.5945 74.6982 30.5195C75.358 28.4446 81.4875 29.7722 83.6499 30.2174C86.3926 33.6995 91.2739 38.1674 102.404 34.5661C108.47 32.5945 109.328 24.2708 109.328 24.2708Z" fill="#7AAC5C"/>
<path d="M103.811 73.0599C102.118 73.6243 100.591 73.9026 99.0886 72.8532C98.9789 72.7738 98.8541 72.717 98.7213 72.6858C98.5894 72.6547 98.4526 72.6498 98.3183 72.6716C98.1847 72.6934 98.0559 72.7413 97.9406 72.8127C97.8254 72.8841 97.7252 72.9776 97.6457 73.0877C97.5662 73.1979 97.5097 73.3225 97.4787 73.4547C97.4469 73.5868 97.4422 73.7238 97.4644 73.8577C97.4859 73.9918 97.5336 74.1201 97.6051 74.2356C97.6767 74.351 97.7705 74.4513 97.8802 74.5306C100.13 76.1206 102.499 75.7152 104.558 74.9917C104.814 74.8927 105.021 74.6958 105.132 74.4446C105.243 74.1934 105.25 73.9084 105.15 73.6521C105.051 73.396 104.855 73.1897 104.604 73.0785C104.352 72.9675 104.067 72.9608 103.811 73.0599Z" fill="#0F0F0F"/>
<path d="M103.644 63.5361C102.227 62.8795 100.641 62.6795 99.1049 62.9637C97.5149 63.2658 96.3304 64.1085 96.8392 64.9353C96.9775 65.1701 97.2009 65.3424 97.4633 65.4165C97.7256 65.4905 98.0062 65.4606 98.2463 65.3328C99.5024 64.5378 101.538 64.7445 103.128 65.468C103.353 65.463 103.57 65.385 103.748 65.2458C103.925 65.1066 104.052 64.9136 104.111 64.6959C104.169 64.4782 104.155 64.2474 104.071 64.0382C103.987 63.8291 103.838 63.653 103.644 63.5361Z" fill="#0F0F0F"/>
<path d="M81.5193 50.4745C83.2763 49.8544 84.3098 49.1467 86.663 49.3852C88.1814 49.5442 88.1973 47.4455 86.7663 47.2468C84.7923 47.0854 82.8144 47.5202 81.09 48.4948C79.8896 49.1467 80.6925 50.7766 81.5193 50.4745Z" fill="#0F0F0F"/>
<path d="M85.0649 51.524C74.5154 52.8516 77.282 67.106 86.7106 66.311C96.4414 65.4921 94.5493 50.3394 85.0649 51.524ZM90.7412 61.2627C90.3723 62.1767 89.7204 62.9485 88.8809 63.4649C86.4959 61.4138 82.823 58.7664 80.597 57.2082C82.9184 50.3792 93.7066 53.8136 90.773 61.2627H90.7412Z" fill="#0F0F0F"/>
<path d="M98.4684 60.976C98.5702 61.0819 98.6926 61.165 98.8286 61.2199C98.9637 61.2747 99.11 61.3002 99.2563 61.2943C99.4026 61.2885 99.5465 61.2517 99.6776 61.1862C99.808 61.1208 99.9241 61.0281 100.016 60.9146C100.109 60.801 100.176 60.6691 100.214 60.5275C100.252 60.3859 100.259 60.238 100.235 60.0935C100.211 59.9489 100.157 59.8111 100.076 59.6891C99.9948 59.5672 99.8883 59.4638 99.7643 59.386C96.624 57.4144 99.5814 53.9561 102.602 55.2281C103.843 55.7528 104.685 53.7733 103.397 53.3281C102.494 53.0019 101.526 52.8939 100.573 53.0126C99.6196 53.1315 98.7077 53.4738 97.9119 54.0118C95.7654 55.6495 95.2328 58.7659 98.4684 60.976Z" fill="#0F0F0F"/>
<path d="M115.967 48.6778C104.837 48.6301 106.315 64.872 116.412 63.7828C126.135 62.805 125.125 48.7176 115.967 48.6778ZM118.733 60.9208C116.428 58.8697 112.635 56.1508 110.298 54.5052C114.138 45.5535 126.771 54.2269 118.733 60.9208Z" fill="#0F0F0F"/>
<path d="M105.934 67.3516C104.781 68.2977 102.285 69.2994 101.49 67.4391C101.404 67.2385 101.257 67.0699 101.07 66.9573C100.883 66.8446 100.666 66.7934 100.448 66.811C98.4767 66.9382 99.9872 69.8718 96.6243 67.4947C95.5272 66.6997 94.5335 68.091 95.3682 69.1404C96.362 70.3965 99.4863 71.6526 100.679 69.7605C102.507 72.1455 106.244 70.0785 107.373 68.6475C107.527 68.4543 107.602 68.2093 107.582 67.9628C107.562 67.7163 107.448 67.4868 107.264 67.3212C107.08 67.1557 106.84 67.0667 106.593 67.0723C106.346 67.078 106.109 67.1779 105.934 67.3516Z" fill="#0F0F0F"/>
<path d="M111.101 46.4041C112.844 45.9821 114.669 46.0425 116.38 46.579C117.175 46.7857 117.811 45.2514 116.841 44.6233C115.355 43.6534 111.881 43.8283 110.553 44.4087C110.422 44.4447 110.299 44.5062 110.192 44.5896C110.085 44.673 109.995 44.7768 109.928 44.8949C109.86 45.013 109.817 45.1432 109.801 45.278C109.783 45.4128 109.794 45.5497 109.829 45.6807C109.865 45.8117 109.927 45.9344 110.011 46.0416C110.094 46.1489 110.198 46.2387 110.316 46.3059C110.434 46.373 110.564 46.4163 110.699 46.4332C110.834 46.45 110.97 46.4401 111.101 46.4041Z" fill="#0F0F0F"/>
<path d="M22.8405 79.2217C21.7275 79.3171 21.7434 80.8117 23.1347 80.6925C24.2795 80.5414 24.2238 79.0071 22.8405 79.2217Z" fill="#0F0F0F"/>
<path d="M42.668 87.8468C43.9956 87.5368 44.0592 87.2426 43.9877 84.1103C43.9161 80.7316 43.5981 75.5005 40.0604 76.1604C36.3875 76.2637 39.48 88.61 42.668 87.8468Z" fill="#0F0F0F"/>
<path d="M35.934 122.756C34.5269 122.899 34.0976 123.265 34.1771 123.988C34.2407 124.521 34.6461 124.982 35.7671 124.902C36.6813 124.839 38.3031 125.745 38.8755 127.534C39.4479 129.322 41.1572 128.392 40.9107 126.922C40.6325 124.95 38.6132 122.485 35.934 122.756Z" fill="#0F0F0F"/>
<path d="M43.137 88.9605C40.3863 89.4931 40.6645 93.3012 43.296 93.1183C46.2454 92.9116 46.1103 88.3801 43.137 88.9605Z" fill="#0F0F0F"/>
<path d="M23.532 77.3372C23.5193 76.712 23.3815 76.0956 23.1266 75.5246C22.904 75.2066 21.9182 75.2145 21.5366 75.5246C20.8767 76.0413 21.4253 78.7841 22.4429 78.7761C23.1186 78.7046 23.6672 78.5376 23.532 77.3372Z" fill="#0F0F0F"/>
<path d="M153.236 112.182C151.147 111.936 149.044 111.814 146.94 111.816C152.942 104.057 155.025 99.009 155.025 92.7364C155.025 80.1516 142.917 66.1675 133.695 60.2527C137.599 58.4401 140.699 54.33 140.31 49.7905C143.267 48.4072 141.812 43.6611 142.273 40.9899C143.251 39.1852 146.089 38.8434 145.509 35.3772C145.032 30.1858 135.651 33.1909 137.726 27.5067C138.155 25.869 138.751 23.6191 136.978 21.7986C135.142 19.4533 127.653 21.3216 125.173 20.0973C124.06 11.8531 118.948 13.4034 112.993 17.0842C101.593 4.76967 80.295 8.93546 66.0566 18.2847C59.1481 22.8639 48.7574 34.4391 55.6024 60.3084C46.7222 60.1573 35.7274 59.9109 26.3861 59.8393C3.51397 59.6247 1.04152 62.3118 6.28057 81.2328C7.87057 89.938 10.2556 100.893 11.6389 107.054C13.0142 112.619 13.0619 118.486 17.5775 120.856C13.1891 128.48 18.1261 130.396 23.9375 127.08C25.8843 129.822 28.5083 132.013 31.5536 133.44C31.0448 145.151 37.4207 142.114 42.6836 135.897C44.5121 134.665 46.6109 135.102 48.6064 133.281C57.407 139.18 65.1185 135.245 74.9845 132.749C72.4246 137.344 59.3707 138.004 58.2895 142.066C57.1288 146.51 59.9749 149.332 63.5285 149.563C71.7886 150.096 85.2399 142.289 86.5834 130.141C92.689 128.67 107.651 125.323 111.077 123.527C112.787 122.732 112.803 120.45 112.803 119.21C112.882 116.642 111.753 116.03 105.226 113.693C117.739 114.567 143.879 113.844 152.926 113.883C154.23 113.891 154.588 112.166 153.236 112.182ZM135.635 56.7706C131.763 59.728 129.959 58.5753 129.879 62.0653C129.649 72.8296 113.24 77.8222 100.114 78.5298C97.944 78.6411 96.0837 78.4502 94.1518 78.3787C88.0701 78.1561 83.9202 76.2799 81.6942 74.4037C79.2532 72.4452 77.2744 69.9723 75.8987 67.1613C73.5608 61.7812 73.047 55.784 74.4359 50.0847C76.9004 47.0319 76.6937 46.1097 77.7352 45.9507C78.5302 45.8076 80.6289 47.4214 82.5051 47.0716C85.3512 46.5549 88.3086 43.51 90.6618 42.6753C93.0468 43.0728 95.0263 46.6503 97.8168 46.0858C100.671 45.8314 101.506 41.3953 103.573 40.5208C105.004 41.0217 105.862 43.5657 108.176 43.2795C113.105 42.3811 110.736 36.7525 116.348 42.4368C119.139 45.3783 121.325 46.5072 123.599 46.3561C126.325 46.1812 127.709 43.6849 129.521 43.7326C131.755 43.7883 135.158 49.7985 138.266 50.0926C138.431 51.3376 138.276 52.604 137.816 53.7723C137.355 54.9408 136.605 55.9726 135.635 56.7706ZM113.852 19.024C116.102 17.5056 119.958 15.7804 121.222 16.2018C122.971 16.7901 122.35 20.1768 123.607 21.4726C125.308 23.802 133.345 21.6396 135.532 23.2693C137.495 25.3045 133.83 29.2557 136.136 31.5771C137.67 33.7236 142.981 33.2943 143.505 35.7349C143.426 39.1693 139.157 38.0166 140.174 43.9473C140.747 54.6162 133.17 40.9342 129.339 41.6577C126.755 41.9757 125.936 44.4561 123.153 44.4163C119.178 44.1222 113.176 33.3897 109.702 39.9166C109.193 40.7116 108.907 41.1409 108.072 41.1966C106.395 41.0853 105.632 38.0961 103.414 38.4459C100.567 38.5572 99.8043 43.3272 97.5147 44.0109C95.392 44.0109 93.2614 40.4572 90.8367 40.5765C87.45 40.7434 83.6101 46.9365 79.7067 44.2176C79.4176 43.998 79.086 43.8407 78.733 43.7559C78.3799 43.6711 78.0131 43.6604 77.6557 43.7247C75.0242 43.9632 72.7346 51.2533 70.0714 49.878C67.9646 48.9796 71.0651 45.1716 68.3542 42.564C65.9692 40.2982 63.0356 38.9308 67.8215 37.15C78.5302 33.175 60.0782 26.815 80.4619 27.3238C84.5721 40.4652 109.623 39.8928 110.282 24.9388C112.755 23.9689 114.48 21.6316 113.852 19.024ZM67.2014 19.9701C77.9737 12.7594 90.8923 9.79406 101.625 12.5925C107.818 14.1825 115.402 18.714 110.02 22.7764C109.664 21.5027 109.037 20.3206 108.184 19.3102C107.301 18.3006 105.934 19.3818 106.84 20.3676C108.963 22.6572 108.82 27.7611 106.554 29.9076C105.992 28.5254 105.219 27.2382 104.264 26.0916C104.087 25.8807 103.833 25.7489 103.559 25.725C103.285 25.7011 103.012 25.7872 102.801 25.9644C102.591 26.1415 102.459 26.3951 102.435 26.6694C102.411 26.9438 102.497 27.2163 102.674 27.4272C103.533 28.4448 104.773 30.4005 104.845 31.6645C102.747 33.2715 100.241 34.2576 97.6101 34.5106C97.3294 32.6317 96.7435 30.8112 95.877 29.1205C95.753 28.876 95.5359 28.6908 95.2752 28.6058C95.0144 28.5208 94.7306 28.5429 94.4857 28.6674C94.2409 28.7918 94.0564 29.0083 93.9714 29.2692C93.8863 29.5301 93.9086 29.8141 94.0326 30.0586C94.7711 31.4964 95.2783 33.0418 95.5351 34.6378C88.8253 34.7014 81.9327 30.8298 81.7657 22.9831C81.7578 22.7083 81.6409 22.4479 81.4414 22.2588C81.2418 22.0696 80.9755 21.967 80.7004 21.9735C79.1105 22.1404 79.8339 24.1756 79.9054 25.2012C71.6137 24.7321 66.0089 26.6322 68.9345 32.3085C70.0078 34.3993 68.6722 34.3993 66.9788 35.242C59.3707 38.422 63.2026 41.3715 67.4399 44.8297C67.6705 46.4913 66.6449 48.8047 67.75 50.5299C63.8704 52.0165 58.2736 52.5492 56.0953 52.7002C53.7898 37.8496 57.6137 26.3857 67.2014 19.9701ZM15.431 114.138C12.8791 103.564 10.8995 93.9846 8.31576 80.8671C7.52077 76.1766 4.60312 67.8052 6.80527 64.8001C12.8552 59.577 37.9057 62.6616 48.3202 62.2164C55.4434 62.8047 61.4774 61.2147 65.9851 64.7445C70.2781 68.1391 70.4848 84.3015 73.0367 89.9539C70.3417 89.0794 65.683 90.9954 64.1407 92.2038C62.5162 92.0352 60.8797 92.0145 59.2514 92.1402C56.4928 84.9852 45.7364 69.4429 38.971 71.335C33.0482 72.9966 27.9125 89.8903 27.4832 96.1311C23.2061 99.3111 22.8643 105.035 24.4066 107.007C18.2374 111.777 20.7814 117.199 18.6985 119.107C17.4901 118.558 16.0352 116.65 15.431 114.138ZM78.2758 94.5411C83.6499 98.2299 88.4358 93.595 89.9224 97.2838C91.099 100.201 86.011 103.644 84.2938 104.439C79.5238 99.7483 75.5489 94.0561 67.4479 92.7046C71.1764 90.6297 75.5887 92.6967 78.2758 94.5411ZM30.5758 102.038L31.3708 102.483C29.4237 103.213 27.6126 104.264 26.0125 105.592C22.9517 98.0073 36.109 92.7285 42.0635 96.0516C47.4775 98.2855 44.1067 102.698 38.5655 102.284C34.837 102.038 33.4139 101.338 31.6808 100.289C31.45 100.17 31.1827 100.142 30.9322 100.21C30.6817 100.279 30.4664 100.44 30.329 100.661C30.1917 100.881 30.1424 101.145 30.1911 101.4C30.2398 101.656 30.3828 101.884 30.5917 102.038H30.5758ZM29.8603 94.5967C30.7825 89.3497 35.4253 74.4991 39.8216 73.5769C44.218 72.6547 54.4655 85.7166 56.779 92.3628C52.8359 92.6696 49.0217 93.9066 45.649 95.9721C43.2004 93.2373 35.6956 91.5678 29.8762 94.6047L29.8603 94.5967ZM48.8369 129.72C46.5394 133.695 44.1623 132.2 41.3321 134.291C37.9295 137.471 33.1754 143.64 33.5093 134.291C35.0993 135.372 37.699 134.14 35.4968 132.701C30.854 131.572 25.1618 127.43 24.1601 122.708C24.101 122.44 23.9385 122.205 23.7077 122.057C23.4769 121.908 23.1966 121.856 22.9279 121.913C21.3776 122.406 22.4986 124.298 22.8722 125.292C21.5048 125.904 19.4776 127.462 18.293 126.707C16.3691 125.475 21.5287 119.695 21.6877 116.419C22.1329 110.123 29.2402 104.494 34.5269 103.779C39.4798 105.496 48.2566 103.389 46.6825 97.8165C54.068 92.7205 70.127 92.7603 76.9561 99.7165C74.9845 98.3173 70.8107 98.1742 68.2111 99.2395C65.2378 100.448 63.3536 102.268 64.4348 103.501C64.5338 103.597 64.6517 103.671 64.7809 103.719C64.9101 103.766 65.0479 103.787 65.1855 103.779C65.3231 103.771 65.4573 103.734 65.58 103.671C65.7026 103.608 65.8107 103.521 65.8976 103.413C73.2911 96.1867 82.2268 105.703 87.6328 109.829C89.6919 111.061 96.0598 109.614 96.7912 111.936C97.6578 116.817 90.0496 119.886 85.8918 119.758C83.5068 119.615 80.4381 116.889 79.4683 115.847C78.4984 114.806 77.0197 116.3 77.9578 117.262C78.5748 117.904 79.2334 118.504 79.9293 119.059C77.9975 124.687 68.4257 126.262 62.2724 125.323C62.4632 121.348 61.0322 118.709 58.4167 116.237C66.1282 109.646 57.725 99.9948 49.4093 106.291C45.959 108.907 43.3991 113.398 45.2435 116.626C45.3853 116.854 45.61 117.017 45.8702 117.082C46.1303 117.148 46.4056 117.109 46.6377 116.974C46.8699 116.84 47.0408 116.621 47.1145 116.363C47.1881 116.105 47.1586 115.83 47.0323 115.593C45.9431 113.693 47.5888 110.211 50.6336 107.985C52.1441 106.14 59.5615 104.932 59.4422 110.521C59.1799 112.691 57.0016 115.076 54.9505 116.467C53.4956 117.858 55.8488 119.099 56.8505 117.644C64.9834 124.29 56.7631 134.402 49.2106 127.279C47.2072 125.991 46.6825 128.655 48.8528 129.72H48.8369ZM70.8028 131.715C62.0578 133.941 57.6535 136.366 50.0215 131.676C50.2123 131.416 50.4031 131.129 50.5939 130.817C53.9647 133.043 60.6904 130.714 61.7239 127.327C66.4382 128.281 73.6489 127.041 76.9799 125.212C77.1451 126.906 76.9361 128.616 76.3678 130.221C74.3087 130.761 72.4723 131.262 70.8187 131.715H70.8028ZM75.1673 143.593C71.7886 145.556 68.0918 147.488 64.7131 147.568C61.7159 147.639 59.792 145.93 60.2531 143.259C60.5632 141.454 63.1072 140.874 64.8721 140.126C71.7091 137.328 80.2791 136.748 78.872 123.885C80.0239 122.89 80.9556 121.666 81.6067 120.291C87.1161 125.538 84.9537 137.781 75.1832 143.593H75.1673ZM110.688 118.9C110.688 119.536 110.743 121.285 110.195 121.619C107.19 123.288 92.7844 126.532 86.655 127.979C86.5389 125.843 86.0571 123.743 85.2319 121.77C90.5266 122.215 97.6101 118.995 98.898 113.716C106.196 116.197 110.728 117.461 110.704 118.9H110.688ZM98.7628 111.506C96.7117 105.941 89.0638 110.592 85.9236 105.941C90.3835 103.644 92.8719 99.1918 91.6635 96.4014C90.5107 93.7143 88.5471 93.6427 84.3018 94.1515C80.605 94.5888 78.8243 91.8301 75.4615 90.7012C72.989 84.4445 72.7028 76.3912 71.1208 70.3095C69.6898 64.5934 66.8596 60.4197 57.7489 60.3243C57.2321 58.4322 56.8028 56.5798 56.461 54.7593C59.1322 54.5605 65.6432 53.9007 69.7375 51.937C70.5202 52.1863 71.3663 52.1469 72.1225 51.8257C69.9601 66.7797 77.8306 79.4997 93.4363 80.1834C90.3994 83.1885 90.6936 86.3446 86.488 82.9023C86.2972 82.7043 86.0389 82.5843 85.7646 82.5652C85.4903 82.5461 85.2184 82.6296 85.0014 82.7989C84.3097 83.4826 84.8026 84.5638 86.7345 85.7643C89.1195 87.243 90.8685 87.4258 92.9434 84.5161C94.7878 81.9482 95.6941 80.4696 96.6243 80.4298C99.0093 80.3106 98.6595 86.3923 103.422 87.2191C105.862 87.6484 107.699 86.2174 109.161 84.5877C110.068 83.578 108.859 82.1232 107.762 83.0931C105.671 84.9454 102.468 87.0681 99.9871 80.4298C112.707 79.9846 132.129 75.151 131.787 61.5724C137.273 64.498 146.026 72.0664 149.889 80.2072C141.939 80.3662 130.014 84.3333 120.697 93.1339C119.107 90.4309 118.534 88.5468 117.27 88.833C116.205 89.0714 116.34 90.6933 118.757 94.6762C112.238 101.545 109.837 108.986 109.456 111.729C105.735 111.602 101.76 111.498 98.7946 111.506H98.7628ZM111.801 111.824C112.901 106.596 115.364 101.753 118.94 97.7847C127.105 88.4911 139.133 81.7654 150.851 82.2822C156.281 95.2089 151.265 103.063 144.229 111.801C121.381 111.983 132.479 112.572 111.833 111.824H111.801Z" fill="#0F0F0F"/>
<path d="M38.3429 113.923C38.168 111.92 36.5939 110.743 34.3679 110.902C32.6587 111.021 31.7842 112.405 32.5394 113.072C33.2947 113.74 33.9068 112.492 35.0755 113.017C35.3097 113.12 35.5123 113.283 35.6628 113.49C35.8133 113.697 35.9062 113.94 35.932 114.195C35.9579 114.449 35.9158 114.706 35.81 114.939C35.7043 115.172 35.5386 115.373 35.3299 115.521C32.9846 114.654 32.5633 117.222 33.7399 119.027C35.2424 121.746 39.0505 120.076 37.1186 116.968C37.9136 115.911 39.2651 115.314 39.9647 117.143C40.4179 118.335 39.7183 119.631 40.7597 120.021C42.8188 120.84 43.2401 113.494 38.3429 113.923Z" fill="#0F0F0F"/>
<path d="M27.324 115.036C25.9168 115.036 25.4478 115.33 25.4478 116.062C25.4478 116.602 25.7976 117.103 26.9583 117.151C27.6694 117.307 28.3167 117.674 28.8148 118.204C29.313 118.735 29.6386 119.405 29.7487 120.124C30.0985 121.897 31.9111 121.229 31.8396 119.75C31.7442 117.755 30.019 115.068 27.324 115.036Z" fill="#0F0F0F"/>
<path d="M16.2021 95.606C14.4133 86.4873 10.494 72.4317 12.1317 69.2279C13.4832 66.6044 21.4809 67.6379 25.7977 67.2722C34.6302 67.2722 44.043 67.0575 56.2621 67.2006C60.5074 67.296 63.9975 66.7713 65.3172 71.0166C65.7306 72.3363 67.1934 72.6066 66.9708 70.6271C66.3507 65.0621 61.207 65.229 56.2939 65.1257C47.5489 65.0303 35.3616 65.1257 30.7506 65.2131C7.15498 65.1893 7.03573 62.4147 12.1158 86.535C12.9744 88.8087 14.4133 99.7877 15.7807 105.559C16.5042 108.62 16.9573 109.67 17.7205 109.463C18.4837 109.256 18.3963 108.27 17.8795 105.623C17.3628 102.976 16.4247 97.7843 16.2021 95.606Z" fill="#0F0F0F"/>
<path d="M17.4265 75.5961C15.3913 79.6506 15.4947 81.9561 16.6315 83.0452C18.0625 84.4285 22.0296 83.4189 24.9631 83.2996C31.1562 83.0452 31.2516 79.7221 27.3481 75.0793C23.4447 70.4365 20.4078 69.6654 17.4265 75.5961ZM27.5787 80.1514C27.4356 81.2008 23.23 81.4711 21.3141 81.5983C18.0705 81.8209 16.9654 81.4632 19.2312 76.6137C21.163 72.4638 22.9438 72.6387 25.7263 76.407C26.6247 77.6392 27.6979 79.2292 27.5787 80.1514Z" fill="#0F0F0F"/>
<path d="M59.3704 76.4068C59.9587 76.4068 60.2211 75.9934 60.0303 75.103C59.8792 73.5686 59.3386 72.3602 58.2813 73.354C57.7327 73.8707 58.3926 76.4863 59.3704 76.4068Z" fill="#0F0F0F"/>
<path d="M58.4645 70.0553C54.8154 70.7549 53.1777 78.4108 54.5769 79.7543C56.1669 81.2569 58.7268 80.5016 61.1516 80.3903C65.7944 80.1677 66.2475 77.8066 64.0374 74.3722C61.7399 70.7947 60.0942 69.7453 58.4645 70.0553ZM63.6002 77.7509C63.1868 78.4982 62.2725 78.5459 61.406 78.6175C56.9063 78.9514 53.8455 80.6606 56.636 74.078C59.3231 67.718 64.1726 76.7413 63.6002 77.7509Z" fill="#0F0F0F"/>
<path d="M59.6647 76.7571C58.6948 76.8525 58.7106 78.2755 59.927 78.1404C60.9287 77.9973 60.881 76.5583 59.6647 76.7571Z" fill="#0F0F0F"/>
</svg>
